<svg width="375" height="603" viewBox="0 0 375 603" fill="none" xmlns="http://www.w3.org/2000/svg">
<foreignObject x="-40" y="-40" width="455" height="683"><div xmlns="http://www.w3.org/1999/xhtml" style="backdrop-filter:blur(20px);clip-path:url(#bgblur_0_3_1252_clip_path);height:100%;width:100%"></div></foreignObject><path data-figma-bg-blur-radius="40" d="M38.3863 3.90316L5.98615 30.4837C2.51322 33.3328 0.5 37.5884 0.5 42.0805V587.5C0.5 595.784 7.21573 602.5 15.5 602.5H359.5C367.784 602.5 374.5 595.784 374.5 587.5V42.0805C374.5 37.5885 372.487 33.3328 369.014 30.4837L336.614 3.90316C333.931 1.70266 330.569 0.5 327.1 0.5H47.9002C44.4308 0.5 41.0686 1.70266 38.3863 3.90316Z" fill="black" fill-opacity="0.1" stroke="#5B5B5B"/>
<defs>
<clipPath id="bgblur_0_3_1252_clip_path" transform="translate(40 40)"><path d="M38.3863 3.90316L5.98615 30.4837C2.51322 33.3328 0.5 37.5884 0.5 42.0805V587.5C0.5 595.784 7.21573 602.5 15.5 602.5H359.5C367.784 602.5 374.5 595.784 374.5 587.5V42.0805C374.5 37.5885 372.487 33.3328 369.014 30.4837L336.614 3.90316C333.931 1.70266 330.569 0.5 327.1 0.5H47.9002C44.4308 0.5 41.0686 1.70266 38.3863 3.90316Z"/>
</clipPath></defs>
</svg>
